<?xml version="1.0" standalone="no"?>
<!DOCTYPE svg PUBLIC "-//W3C//DTD SVG 20010904//EN"
 "http://www.w3.org/TR/2001/REC-SVG-20010904/DTD/svg10.dtd">
<svg version="1.0" xmlns="http://www.w3.org/2000/svg"
 width="1280.000000pt" height="1100.000000pt" viewBox="0 0 1280.000000 1100.000000"
 preserveAspectRatio="xMidYMid meet">
<metadata>
Created by potrace 1.15, written by Peter Selinger 2001-2017
</metadata>
<g transform="translate(0.000000,1100.000000) scale(0.100000,-0.100000)"
fill="#000000" stroke="none">
<path d="M3365 10986 c-16 -7 -39 -23 -50 -36 -20 -22 -20 -38 -23 -903 -3
-973 -7 -906 61 -947 30 -19 54 -20 493 -20 l461 0 34 23 c18 12 39 34 46 47
10 19 13 218 13 890 0 850 0 866 -20 898 -38 62 -42 62 -537 62 -349 -1 -455
-4 -478 -14z m853 -883 l-3 -708 -372 -3 -373 -2 0 710 0 710 375 0 375 0 -2
-707z m-360 -854 c4 -31 -20 -53 -47 -44 -45 14 -30 79 17 73 21 -2 28 -9 30
-29z"/>
<path d="M11818 10794 c-199 -36 -394 -161 -513 -329 -98 -138 -135 -252 -142
-430 -4 -109 -2 -144 15 -216 36 -149 98 -264 201 -372 361 -380 971 -325
1260 115 82 123 122 246 129 394 10 236 -60 430 -215 595 -191 202 -463 292
-735 243z m327 -130 c211 -56 402 -238 472 -448 24 -72 27 -96 27 -216 1 -126
-1 -141 -30 -221 -61 -170 -183 -311 -337 -388 -111 -56 -190 -75 -312 -75
-191 0 -347 65 -479 198 -141 141 -196 264 -203 456 -6 140 10 218 68 339 33
67 58 102 128 171 72 74 101 94 181 133 52 26 127 53 165 62 84 18 231 13 320
-11z"/>
<path d="M11929 10602 c-47 -39 -16 -122 47 -122 57 0 85 80 42 120 -27 25
-59 26 -89 2z"/>
<path d="M11930 10225 c0 -102 -3 -185 -6 -185 -3 0 -57 23 -121 50 -64 28
-120 47 -124 43 -4 -4 -15 -24 -23 -44 l-15 -35 122 -53 c97 -41 126 -59 139
-82 40 -69 136 -55 153 22 5 20 1 38 -9 54 -13 20 -16 58 -16 220 l0 195 -50
0 -50 0 0 -185z"/>
<path d="M11375 10015 c-14 -13 -25 -33 -25 -45 0 -29 44 -70 75 -70 34 0 65
33 65 70 0 64 -70 91 -115 45z"/>
<path d="M12465 10015 c-14 -13 -25 -33 -25 -45 0 -29 44 -70 75 -70 59 0 86
77 42 118 -30 29 -62 28 -92 -3z"/>
<path d="M11935 9500 c-39 -43 -9 -110 50 -110 18 0 39 8 48 18 22 25 21 75
-1 95 -25 23 -75 21 -97 -3z"/>
<path d="M110 10680 c-20 -20 -20 -33 -20 -560 0 -527 0 -540 20 -560 19 -19
33 -20 344 -20 l324 0 4 -60 3 -60 -277 0 c-238 0 -279 -2 -292 -16 -20 -19
-22 -144 -4 -162 17 -17 1399 -17 1416 0 7 7 12 41 12 85 0 61 -3 74 -19 83
-12 6 -126 10 -300 10 l-281 0 0 60 0 60 313 0 c291 0 315 1 330 18 15 17 17
70 17 564 0 515 -1 546 -18 561 -17 16 -86 17 -785 17 -754 0 -767 0 -787 -20z
m1470 -550 l0 -410 -690 0 -690 0 0 403 c0 222 3 407 7 410 3 4 314 7 690 7
l683 0 0 -410z m-653 -486 c8 -21 -13 -42 -28 -27 -13 13 -5 43 11 43 6 0 13
-7 17 -16z"/>
<path d="M8534 10671 c-68 -41 -64 -2 -64 -672 0 -600 0 -607 21 -633 46 -58
18 -56 759 -56 741 0 713 -2 759 56 21 26 21 33 21 634 0 601 0 608 -21 634
-46 58 -18 56 -761 56 -655 0 -684 -1 -714 -19z m1389 -83 c16 -12 17 -50 15
-483 l-3 -470 -65 114 c-103 180 -168 241 -243 227 -33 -6 -79 -46 -109 -96
-15 -26 -84 -175 -112 -244 l-16 -39 -141 187 c-170 226 -236 299 -290 320
-96 39 -132 2 -278 -294 l-116 -235 -3 500 c-2 461 -1 501 15 513 13 9 164 12
673 12 509 0 660 -3 673 -12z"/>
<path d="M9610 10491 c-85 -45 -104 -140 -41 -205 54 -56 134 -70 207 -37 155
70 99 260 -76 261 -35 0 -68 -7 -90 -19z"/>
<path d="M5647 10592 c-15 -17 -17 -70 -17 -563 0 -349 4 -549 10 -555 7 -7
-5 -25 -35 -54 l-45 -44 0 -93 0 -93 883 2 882 3 3 87 3 86 -55 44 c-39 30
-53 47 -48 58 4 8 8 258 10 554 2 472 0 542 -13 562 l-15 24 -774 0 c-736 0
-774 -1 -789 -18z m1473 -552 l0 -410 -690 0 -690 0 0 410 0 410 690 0 690 0
0 -410z m-653 -486 c8 -21 -13 -42 -28 -27 -13 13 -5 43 11 43 6 0 13 -7 17
-16z"/>
<path d="M6310 7758 c-70 -36 -120 -96 -140 -166 -6 -22 -10 -188 -10 -414 l0
-378 -150 0 -150 0 0 -40 c0 -23 7 -76 16 -118 46 -225 216 -404 438 -459 l66
-16 0 -62 0 -62 -142 -6 c-79 -4 -173 -7 -210 -7 -62 0 -68 -2 -93 -32 -25
-29 -27 -38 -23 -96 4 -56 8 -68 32 -89 l28 -24 460 3 460 3 24 28 c20 24 24
39 24 93 0 59 -3 68 -29 95 l-29 29 -191 0 -191 0 0 64 0 64 70 16 c191 43
358 194 420 382 20 60 42 229 31 240 -2 2 -73 4 -158 4 l-153 0 0 368 c0 419
-3 438 -71 516 -56 63 -108 88 -194 94 -64 4 -75 1 -135 -30z m-146 -1100 c2
-7 9 -31 15 -54 29 -109 140 -189 260 -187 78 0 125 19 182 70 45 41 74 91 84
146 l7 37 79 0 c75 0 79 -1 79 -22 0 -38 -56 -144 -102 -194 -52 -57 -125
-105 -195 -128 -65 -22 -190 -22 -259 -1 -77 23 -170 89 -220 157 -37 51 -84
150 -84 178 0 15 150 13 154 -2z"/>
<path d="M9167 7569 c-127 -30 -254 -150 -332 -315 -29 -61 -85 -236 -85 -266
0 -19 241 -69 403 -83 l77 -7 0 61 c0 47 -5 68 -24 96 -34 49 -42 128 -22 198
9 30 23 60 31 67 20 17 22 261 3 259 -7 -1 -30 -5 -51 -10z"/>
<path d="M9267 7573 c-4 -3 -7 -57 -7 -119 0 -106 2 -115 24 -137 36 -36 52
-122 37 -194 -8 -33 -23 -66 -37 -80 -20 -20 -24 -34 -24 -83 l0 -60 48 0
c107 0 269 26 379 62 60 19 63 21 57 46 -48 216 -146 396 -262 484 -73 56
-195 102 -215 81z"/>
<path d="M11515 7518 c-3 -7 -6 -60 -7 -118 l-3 -105 -43 -6 c-44 -6 -62 -20
-62 -51 0 -16 -12 -18 -100 -18 -81 0 -102 -3 -106 -15 -13 -34 15 -45 112
-45 l94 0 0 -55 0 -55 -100 0 c-81 0 -102 -3 -106 -15 -13 -34 15 -45 112 -45
l94 0 0 -50 0 -49 -102 -3 c-91 -3 -103 -5 -106 -22 -6 -29 16 -36 116 -36
l92 0 0 -50 0 -50 -100 0 c-81 0 -102 -3 -106 -15 -13 -34 15 -45 112 -45 l94
0 0 -55 0 -54 -102 -3 c-91 -3 -103 -5 -106 -22 -6 -29 16 -36 116 -36 l92 0
0 -45 0 -45 -94 0 c-97 0 -125 -11 -112 -45 4 -12 25 -15 106 -15 77 0 100 -3
100 -13 0 -24 36 -47 73 -47 l37 0 0 -115 c0 -94 3 -117 15 -121 35 -14 45 14
45 127 l0 109 45 0 45 0 0 -109 c0 -113 9 -138 44 -125 13 5 16 24 16 120 l0
114 55 0 55 0 0 -109 c0 -113 10 -141 45 -127 12 4 15 27 15 121 l0 115 50 0
50 0 0 -109 c0 -84 3 -111 15 -121 12 -10 18 -10 30 0 12 10 15 37 15 121 l0
109 50 0 50 0 0 -109 c0 -113 10 -141 45 -127 12 4 15 27 15 121 l0 115 55 0
55 0 0 -109 c0 -113 10 -141 45 -127 12 4 15 27 15 121 l0 115 45 0 c41 0 48
4 63 30 l17 30 106 0 c82 0 109 3 119 15 10 12 10 18 0 30 -10 12 -37 15 -121
15 l-109 0 0 45 0 45 103 0 c110 0 146 12 134 44 -5 13 -24 16 -122 16 l-115
0 0 60 0 60 115 0 c94 0 117 3 121 15 14 35 -14 45 -127 45 l-109 0 0 45 0 45
109 0 c113 0 141 10 127 45 -4 12 -27 15 -121 15 l-115 0 0 55 0 54 118 3
c109 3 117 4 117 23 0 19 -8 20 -117 23 l-118 3 0 59 0 60 115 0 c98 0 117 3
122 16 12 32 -24 44 -134 44 -80 0 -103 3 -103 13 0 24 -34 45 -75 49 l-40 3
-5 115 c-4 102 -7 115 -24 118 -30 6 -36 -16 -36 -131 l0 -108 -52 3 -53 3 -5
115 c-4 102 -7 115 -24 118 -30 6 -36 -16 -36 -131 l0 -108 -47 3 -48 3 -5
115 c-5 115 -5 115 -30 115 -25 0 -25 0 -30 -115 l-5 -115 -45 0 -45 0 -5 115
c-4 102 -7 115 -24 118 -30 6 -36 -16 -36 -131 l0 -108 -52 3 -53 3 -5 115
c-5 115 -5 115 -30 115 l-25 0 -3 -117 -3 -118 -44 0 -45 0 0 104 c0 57 -3
111 -6 120 -7 19 -43 21 -49 4z m766 -418 c18 -10 19 -24 19 -307 0 -262 -2
-299 -17 -315 -15 -17 -38 -18 -323 -18 -248 0 -310 3 -326 14 -18 14 -19 31
-22 301 -2 247 -1 290 13 311 l15 24 311 0 c195 0 318 -4 330 -10z"/>
<path d="M11720 7043 c-37 -13 -40 -32 -40 -263 0 -207 2 -228 18 -243 16 -15
49 -17 259 -17 220 0 241 2 256 18 15 16 17 48 17 243 0 123 -4 229 -8 235
-19 30 -55 34 -269 33 -120 0 -225 -3 -233 -6z"/>
<path d="M3660 7315 l0 -85 -95 0 -95 0 0 55 0 55 -109 0 -110 0 -3 -52 -3
-53 -72 -5 c-57 -4 -75 -9 -87 -25 -13 -17 -15 -88 -16 -498 l0 -478 25 -24
24 -25 726 0 726 0 24 25 25 24 0 474 c0 465 0 475 -21 501 l-20 26 -215 0
-214 0 0 85 0 85 -245 0 -245 0 0 -85z m-90 -155 c25 -25 26 -61 3 -89 -17
-20 -26 -22 -118 -19 -98 3 -100 4 -113 31 -14 30 -9 58 14 82 12 11 39 15
105 15 76 0 92 -3 109 -20z m474 -245 c194 -92 248 -357 105 -519 -50 -56
-145 -105 -221 -113 -132 -13 -271 67 -329 192 -24 50 -29 73 -29 140 0 67 5
90 29 140 29 61 93 130 150 159 83 43 205 44 295 1z"/>
<path d="M3805 6864 c-87 -31 -158 -121 -171 -218 -14 -101 57 -225 155 -269
62 -27 155 -26 214 2 102 49 167 165 152 270 -8 59 -54 142 -98 175 -70 54
-170 69 -252 40z"/>
<path d="M126 7308 c-14 -20 -16 -86 -16 -518 0 -432 2 -498 16 -518 l15 -22
754 0 c672 0 755 2 769 16 14 14 16 75 16 524 0 449 -2 510 -16 524 -14 14
-97 16 -769 16 l-754 0 -15 -22z m1424 -493 l0 -375 -655 0 -655 0 0 375 0
375 655 0 655 0 0 -375z m-621 -429 c18 -22 9 -67 -16 -83 -19 -13 -24 -12
-42 6 -25 25 -27 54 -5 75 19 20 48 20 63 2z"/>
<path d="M9221 7264 c-40 -51 -22 -175 26 -182 51 -7 73 139 28 188 -24 26
-29 25 -54 -6z"/>
<path d="M8743 6924 c-3 -8 -3 -88 0 -177 4 -117 11 -182 26 -236 75 -277 230
-462 419 -502 175 -36 363 89 471 313 71 147 92 239 98 430 3 86 3 164 0 172
-6 14 -11 14 -49 0 -136 -48 -383 -79 -543 -69 -113 8 -260 34 -353 63 -54 18
-64 18 -69 6z"/>
<path d="M3696 4565 c-142 -39 -287 -155 -354 -281 -91 -175 -79 -389 32 -557
49 -73 70 -131 96 -255 24 -119 25 -160 5 -198 -30 -58 -7 -129 56 -171 37
-24 38 -26 22 -49 -20 -31 -5 -71 37 -99 26 -17 29 -24 24 -53 -5 -28 -1 -37
33 -71 53 -54 127 -75 243 -69 144 7 242 70 226 146 -5 23 -1 31 29 49 43 28
54 64 30 99 -17 26 -17 27 14 51 65 51 79 124 36 187 -29 43 -30 58 -11 158
24 125 45 183 97 268 63 104 90 184 96 285 17 252 -163 492 -417 560 -68 18
-228 18 -294 0z m249 -140 c83 -22 147 -60 206 -122 70 -74 102 -148 107 -249
5 -99 -13 -170 -64 -245 -62 -91 -103 -204 -128 -351 l-7 -38 -214 0 c-245 0
-213 -14 -235 103 -19 97 -57 195 -104 269 -64 99 -79 151 -74 256 2 72 8 98
34 152 84 177 290 274 479 225z m68 -1191 c112 -25 -138 -57 -270 -34 -40 6
-73 16 -73 20 0 5 21 12 48 15 26 4 52 8 57 11 13 5 202 -4 238 -12z"/>
<path d="M11940 4370 c-11 -11 -20 -33 -20 -50 0 -27 -3 -30 -33 -30 -107 0
-241 -65 -331 -160 -69 -74 -107 -142 -134 -241 l-17 -64 -138 -3 -137 -3 0
-69 0 -70 140 0 139 0 11 -42 c55 -215 221 -378 413 -404 84 -11 87 -12 87
-43 0 -55 20 -61 193 -61 196 0 197 0 197 120 l0 80 228 0 c280 0 262 -10 262
147 0 94 -3 112 -18 126 -16 15 -48 17 -245 17 l-227 0 0 130 0 130 228 0
c280 0 262 -10 262 147 0 94 -3 112 -18 126 -16 15 -48 17 -245 17 l-227 0 0
88 c0 80 -2 91 -23 110 -22 21 -33 22 -175 22 -139 0 -154 -2 -172 -20z m-20
-611 l0 -362 -49 6 c-105 12 -207 92 -258 202 -24 52 -28 72 -28 155 0 82 4
103 26 151 57 120 172 206 282 208 l27 1 0 -361z m690 311 c11 -11 20 -31 20
-45 0 -30 -32 -65 -60 -65 -28 0 -60 35 -60 67 0 57 60 83 100 43z m-3 -552
c13 -12 23 -32 23 -45 0 -29 -33 -63 -62 -63 -53 0 -77 71 -38 110 26 26 48
25 77 -2z"/>
<path d="M432 4368 c-8 -8 -12 -61 -12 -174 l0 -163 -159 -3 c-174 -3 -187 -7
-235 -72 -20 -26 -21 -42 -24 -354 -2 -304 -1 -329 16 -362 11 -19 34 -45 52
-57 31 -21 44 -23 186 -23 l154 0 0 -79 c0 -44 3 -86 6 -95 5 -14 57 -16 474
-16 417 0 469 2 474 16 3 9 6 51 6 95 l0 79 158 0 c176 0 203 8 242 72 19 31
20 51 20 362 0 316 -1 330 -21 363 -38 61 -78 73 -244 73 l-145 0 0 158 c0
141 -2 161 -18 175 -17 15 -64 17 -468 17 -337 0 -453 -3 -462 -12z m1188
-773 l0 -265 -83 0 c-81 0 -84 1 -105 30 -13 17 -38 33 -59 39 -24 7 -202 11
-478 11 -477 -1 -501 -3 -538 -55 -17 -23 -24 -25 -103 -25 l-84 0 0 265 0
265 725 0 725 0 0 -265z"/>
<path d="M257 3722 c-40 -44 -6 -102 59 -102 33 0 74 37 74 66 0 48 -99 74
-133 36z"/>
<path d="M457 3722 c-38 -42 -4 -102 58 -102 39 0 75 28 75 60 0 53 -96 83
-133 42z"/>
<path d="M678 3728 c-45 -36 -15 -108 46 -108 66 0 102 64 58 103 -22 20 -81
22 -104 5z"/>
<path d="M5924 4336 c-188 -59 -318 -210 -343 -401 -27 -197 -63 -635 -58
-706 12 -184 140 -276 312 -224 72 21 141 74 234 177 46 51 108 119 138 150
l54 57 185 -1 185 -2 114 -126 c143 -159 190 -202 257 -237 45 -23 65 -27 135
-28 75 0 85 2 124 30 59 41 97 118 102 205 5 75 -57 726 -74 785 -41 145 -150
255 -305 311 -65 24 -65 24 -542 23 -356 0 -487 -4 -518 -13z m1068 -144 c76
-37 130 -92 165 -168 21 -46 28 -95 54 -356 48 -496 40 -558 -73 -558 -75 0
-126 38 -297 224 l-163 176 -237 0 -237 0 -150 -165 c-183 -203 -225 -235
-313 -235 -63 0 -101 57 -101 152 0 59 58 670 67 708 22 92 119 200 214 238
53 20 66 21 529 19 l475 -2 67 -33z"/>
<path d="M5990 4071 c-76 -25 -136 -79 -166 -149 -8 -20 -15 -64 -15 -97 0
-70 18 -120 63 -170 51 -58 101 -80 188 -80 88 0 137 22 190 81 45 52 62 99
63 169 0 138 -99 243 -238 251 -33 2 -71 0 -85 -5z m120 -136 l0 -64 63 -3 62
-3 3 -47 3 -48 -65 0 -66 0 0 -60 0 -60 -45 0 -45 0 0 60 0 60 -65 0 -65 0 0
50 0 50 65 0 65 0 0 65 0 65 45 0 45 0 0 -65z"/>
<path d="M6765 4025 c-30 -30 -32 -64 -4 -99 43 -54 129 -23 129 47 0 69 -77
101 -125 52z"/>
<path d="M6616 3879 c-20 -16 -26 -29 -26 -58 0 -81 106 -107 139 -34 20 45 9
77 -36 101 -31 17 -47 15 -77 -9z"/>
<path d="M6944 3877 c-20 -17 -27 -33 -27 -57 0 -34 39 -80 68 -80 29 0 64 24
76 51 15 37 -2 82 -37 98 -36 16 -50 14 -80 -12z"/>
<path d="M6775 3735 c-40 -40 -32 -96 17 -121 77 -40 146 59 83 121 -13 14
-36 25 -50 25 -14 0 -37 -11 -50 -25z"/>
<path d="M8932 4149 l-262 -189 -125 0 -125 0 0 -285 0 -285 123 0 122 0 263
-191 c145 -105 265 -189 268 -187 2 3 3 302 2 665 l-3 661 -263 -189z"/>
<path d="M9610 4286 c0 -2 25 -20 56 -41 249 -172 350 -500 238 -777 -51 -125
-152 -245 -267 -316 -69 -42 -58 -52 30 -27 282 81 463 402 399 705 -45 215
-221 405 -414 448 -23 6 -42 9 -42 8z"/>
<path d="M9377 4076 c88 -79 152 -241 153 -383 0 -146 -66 -323 -159 -425 -30
-33 -47 -58 -39 -58 34 0 139 64 186 113 144 153 180 393 86 584 -54 113 -145
190 -244 209 l-35 7 52 -47z"/>
<path d="M727 1530 c-143 -24 -247 -79 -247 -130 0 -54 99 -107 242 -130 117
-19 353 -8 445 20 221 69 180 189 -81 235 -93 16 -277 18 -359 5z"/>
<path d="M11535 1523 c-46 -11 -45 3 -45 -759 0 -673 1 -723 18 -743 17 -21
18 -21 462 -19 l444 3 13 25 c19 37 14 1463 -5 1482 -10 10 -105 13 -440 15
-235 0 -436 -1 -447 -4z m783 -215 c7 -7 12 -44 12 -98 0 -54 -5 -91 -12 -98
-9 -9 -103 -12 -359 -12 l-348 0 -15 22 c-11 15 -16 45 -16 92 0 113 -26 106
380 106 256 0 349 -3 358 -12z m-14 -278 c25 -9 26 -12 26 -105 0 -94 0 -96
-27 -106 -16 -6 -152 -9 -360 -7 -390 3 -363 -5 -363 113 0 71 10 97 40 108
28 10 658 7 684 -3z m15 -353 c6 -8 8 -17 4 -20 -3 -4 -168 -7 -365 -7 -292 0
-358 2 -358 13 0 8 3 17 7 20 3 4 163 7 353 7 279 0 350 -3 359 -13z m6 -87
c0 -13 -47 -15 -354 -18 -208 -1 -359 2 -364 7 -28 28 11 31 361 29 310 -3
357 -5 357 -18z m3 -67 c-3 -17 -29 -18 -361 -21 -352 -2 -357 -2 -357 18 0
20 6 20 361 20 338 0 360 -1 357 -17z m-289 -130 c68 -52 88 -130 49 -197 -55
-93 -188 -101 -251 -14 -28 38 -33 114 -9 158 39 72 148 100 211 53z"/>
<path d="M11914 366 c-43 -19 -64 -53 -64 -102 0 -105 123 -145 195 -64 14 15
20 36 20 66 0 77 -81 131 -151 100z"/>
<path d="M3715 1414 c-201 -48 -313 -108 -440 -239 -125 -129 -217 -320 -231
-486 -5 -57 -12 -80 -29 -99 -42 -47 -45 -63 -45 -245 0 -140 3 -182 16 -206
40 -79 218 -79 258 0 13 24 16 67 16 215 l0 185 -30 34 c-35 40 -36 60 -14
160 33 146 118 288 225 377 328 273 809 156 988 -242 46 -103 78 -278 51 -278
-6 0 -19 -15 -30 -32 -18 -30 -20 -51 -20 -216 0 -115 4 -191 11 -205 23 -45
49 -57 131 -57 72 0 80 2 110 29 l33 29 0 201 0 200 -32 33 c-27 28 -33 42
-33 78 -1 112 -58 282 -136 403 -80 123 -219 245 -341 299 -112 49 -165 60
-303 63 -74 2 -144 2 -155 -1z"/>
<path d="M9085 1379 c-219 -23 -475 -105 -582 -186 -73 -56 -94 -172 -49 -261
44 -85 39 -83 136 -67 113 19 215 44 269 67 l44 19 -7 78 -6 78 47 21 c107 46
171 57 333 57 162 0 222 -10 338 -57 l54 -21 -4 -76 -3 -76 59 -23 c69 -28
164 -49 258 -58 l66 -7 16 53 c40 134 4 257 -93 324 -77 53 -311 115 -521 136
-110 11 -241 11 -355 -1z"/>
<path d="M430 1210 l0 -133 33 -31 c82 -77 336 -121 561 -97 149 17 260 53
308 101 l38 38 0 126 c0 77 -4 126 -10 126 -5 0 -10 -4 -10 -9 0 -16 -58 -52
-117 -73 -238 -83 -645 -55 -769 54 l-34 30 0 -132z"/>
<path d="M6050 749 l0 -461 173 90 c94 49 261 135 369 191 109 57 207 110 219
120 28 23 30 75 3 101 -17 17 -745 420 -759 420 -3 0 -5 -207 -5 -461z"/>
<path d="M8965 1045 c-23 -22 -25 -32 -25 -113 l0 -90 -51 -38 c-163 -124
-248 -353 -206 -554 11 -51 14 -55 45 -60 22 -3 37 -13 45 -30 7 -13 24 -31
38 -39 35 -20 83 -1 99 40 l12 29 339 0 338 0 13 -27 c7 -15 25 -34 39 -42 35
-20 83 -1 99 40 11 26 17 29 56 29 42 0 43 1 54 42 17 63 15 207 -5 274 -32
109 -72 174 -166 266 l-89 88 0 84 c0 79 -2 86 -26 105 -15 12 -41 21 -59 21
-18 0 -44 -9 -59 -21 -22 -18 -26 -28 -26 -75 l0 -54 -47 8 c-61 9 -165 9
-225 0 l-48 -8 0 54 c0 47 -4 57 -26 75 -37 29 -89 27 -119 -4z m410 -294
c187 -85 194 -347 11 -444 -57 -30 -165 -30 -221 0 -108 57 -158 178 -123 295
15 51 82 126 133 149 53 24 147 24 200 0z"/>
<path d="M9188 670 c-36 -19 -69 -63 -83 -108 -21 -69 30 -168 102 -198 96
-41 206 14 233 116 19 72 -21 160 -91 195 -39 21 -117 18 -161 -5z"/>
<path d="M430 796 c0 -131 0 -132 28 -158 67 -63 193 -98 385 -106 193 -7 372
23 465 80 53 32 62 62 62 198 l0 122 -40 -35 c-76 -64 -227 -100 -430 -100
-208 0 -379 41 -445 107 l-25 25 0 -133z"/>
<path d="M1353 494 c-15 -26 -92 -67 -163 -87 -244 -69 -625 -32 -732 71 l-28
26 0 -133 0 -133 30 -28 c68 -64 229 -101 435 -100 187 0 292 18 385 65 77 39
85 53 88 169 2 55 2 117 0 136 -3 32 -4 33 -15 14z"/>
<path d="M2883 478 c-18 -18 -37 -46 -42 -61 -28 -73 -1 -174 58 -216 16 -12
32 -21 35 -21 3 0 6 74 6 165 0 183 -3 189 -57 133z"/>
<path d="M4750 325 c0 -94 4 -165 9 -165 18 0 69 50 85 84 33 70 9 178 -49
224 -15 12 -32 22 -36 22 -5 0 -9 -74 -9 -165z"/>
</g>
</svg>
